<?xml version="1.0" encoding="UTF-8" standalone="no" ?>
<!DOCTYPE svg PUBLIC "-//W3C//DTD SVG 1.1//EN" "http://www.w3.org/Graphics/SVG/1.1/DTD/svg11.dtd">
<svg xmlns="http://www.w3.org/2000/svg" xmlns:xlink="http://www.w3.org/1999/xlink" version="1.1" width="500" height="500" viewBox="0 0 500 500" xml:space="preserve">
<desc>Created with Fabric.js 4.6.0</desc>
<defs>
</defs>
<g transform="matrix(1.52 0 0 1.52 67.93 98.74)" id="a67gMxvGtzDxk_COTBUyP"  >
<path style="stroke: rgb(0,0,0); stroke-width: 1; stroke-dasharray: none; stroke-linecap: butt; stroke-dashoffset: 0; stroke-linejoin: miter; stroke-miterlimit: 4; fill: rgb(255,255,255); fill-opacity: 0; fill-rule: nonzero; opacity: 1;" vector-effect="non-scaling-stroke"  transform=" translate(0, 0)" d="M 0 0" stroke-linecap="round" />
</g>
<g transform="matrix(0.97 0 0 0.97 56.4 159.9)" id="ctDix3venzdiWcvcb3UPU"  >
<path style="stroke: rgb(17,27,48); stroke-width: 0; stroke-dasharray: none; stroke-linecap: butt; stroke-dashoffset: 0; stroke-linejoin: miter; stroke-miterlimit: 4; fill: rgb(73,0,81); fill-rule: nonzero; opacity: 1;" vector-effect="non-scaling-stroke"  transform=" translate(0, 0)" d="M -50 -50 L 50 -50 L 50 50 L -50 50 z" stroke-linecap="round" />
</g>
<g transform="matrix(0.97 0 0 0.97 153.16 256.67)" id="55M3SrV93PDiVVqYTaoF_"  >
<path style="stroke: rgb(17,27,48); stroke-width: 0; stroke-dasharray: none; stroke-linecap: butt; stroke-dashoffset: 0; stroke-linejoin: miter; stroke-miterlimit: 4; fill: rgb(73,0,81); fill-rule: nonzero; opacity: 1;" vector-effect="non-scaling-stroke"  transform=" translate(0, 0)" d="M -50 -50 L 50 -50 L 50 50 L -50 50 z" stroke-linecap="round" />
</g>
<g transform="matrix(0.97 0 0 0.97 249.96 353.47)" id="nsZ9miuhSNnVdCbMwJaO8"  >
<path style="stroke: rgb(17,27,48); stroke-width: 0; stroke-dasharray: none; stroke-linecap: butt; stroke-dashoffset: 0; stroke-linejoin: miter; stroke-miterlimit: 4; fill: rgb(73,0,81); fill-rule: nonzero; opacity: 1;" vector-effect="non-scaling-stroke"  transform=" translate(0, 0)" d="M -50 -50 L 50 -50 L 50 50 L -50 50 z" stroke-linecap="round" />
</g>
<g transform="matrix(0.97 0 0 0.97 346.76 256.67)" id="rU0tLMRMLvIO2wNzGCAWV"  >
<path style="stroke: rgb(17,27,48); stroke-width: 0; stroke-dasharray: none; stroke-linecap: butt; stroke-dashoffset: 0; stroke-linejoin: miter; stroke-miterlimit: 4; fill: rgb(73,0,81); fill-rule: nonzero; opacity: 1;" vector-effect="non-scaling-stroke"  transform=" translate(0, 0)" d="M -50 -50 L 50 -50 L 50 50 L -50 50 z" stroke-linecap="round" />
</g>
<g transform="matrix(0.97 0 0 0.97 443.56 159.87)" id="kyhwtqUS-KzkVPoEpQfdj"  >
<path style="stroke: rgb(17,27,48); stroke-width: 0; stroke-dasharray: none; stroke-linecap: butt; stroke-dashoffset: 0; stroke-linejoin: miter; stroke-miterlimit: 4; fill: rgb(73,0,81); fill-rule: nonzero; opacity: 1;" vector-effect="non-scaling-stroke"  transform=" translate(0, 0)" d="M -50 -50 L 50 -50 L 50 50 L -50 50 z" stroke-linecap="round" />
</g>
</svg>